# xmcd CD database file
#
# Track frame offsets:
#	150
#	19575
#	37575
#	58350
#	87976
#	107252
#	128178
#	153979
#	178130
#
# Disc length: 2551 seconds
#
# Revision: 3
# Processed by: cddbd v1.5.1PL0 Copyright (c) Steve Scherf et al.
# Submitted via: CDex 1.51
#
DISCID=6709f509
DTITLE=Yuji Ohno Trio - Lupin the Third Jazz -The 3rd- Funky and Pop
DYEAR=2001
DGENRE=Jazz
TTITLE0=Theme From Lupin III
TTITLE1=Woman from Memphis
TTITLE2=Treasures of Time
TTITLE3=Mayflower
TTITLE4=Tell Me Baby
TTITLE5=Zenigata Rock
TTITLE6=The Third
TTITLE7=Hey Mr Lucky
TTITLE8=Memory of Smile
EXTD=YEAR: 2001
EXTT0=
EXTT1=
EXTT2=
EXTT3=
EXTT4=
EXTT5=
EXTT6=
EXTT7=
EXTT8=
PLAYORDER=
